<svg width="172" height="108" viewBox="0 0 172 108" fill="none" xmlns="http://www.w3.org/2000/svg">
<path d="M7.07146 101.466C19.5715 92.9657 23.1692 68.524 28.5159 56.1119C31.5886 48.9789 32.7529 41.1285 36.5159 34.3341C40.8517 26.5056 48.4635 17.0832 56.2937 12.5563C66.5356 6.63521 79.1729 5.09675 90.5159 6.46574C100.943 7.72417 113.314 14.0216 120.905 21.6119C128.006 28.7133 129.342 42.1253 128.294 51.5563C125.775 74.2221 108.293 85.1119 86.7381 85.1119C77.219 85.1119 72.563 81.5468 65.302 75C58.226 68.62 56.7727 59.0096 57.5715 50.223C59.2552 31.7014 87.4341 25.1119 101.516 25.1119C118.985 25.1119 131.29 26.2299 148.016 31.4657C155.335 33.757 165.516 38.9031 165.516 46.0563C165.516 52.5992 155.562 55.0927 150.627 56.1119C133.566 59.6354 117.319 61.5584 99.9603 62.1675C74.3928 63.0646 48.4813 65.4595 23.5159 58.8897C18.9096 57.6775 10.043 54.0435 7.07146 50.223C1.76749 43.4036 17.302 37.1119 28.5159 37.1119C34.5037 36.9408 40.5253 37.1119 46.5159 37.1119" stroke="black" stroke-width="12" stroke-linecap="round"/>
</svg>
